<?xml version="1.0" encoding="utf-8"?>
<!-- Generator: Adobe Illustrator 19.2.1, SVG Export Plug-In . SVG Version: 6.00 Build 0)  -->
<svg version="1.1" id="layer" xmlns="http://www.w3.org/2000/svg" xmlns:xlink="http://www.w3.org/1999/xlink" x="0px" y="0px"
	 viewBox="0 0 652 652" style="enable-background:new 0 0 652 652;" xml:space="preserve">
<path d="M449.4,110.6c-0.8,0.8-1.6,1.8-2.3,2.5l-32.5,32.4c-0.4,0.4-0.6,0.6-0.8,0.8c-0.8,1-0.8,2,0.2,3.3
	c8.2,13.9,13.3,28.7,15.1,44.6c3.5,32.4-4.7,61.6-25,87.2c-17.4,21.9-40.1,35.6-67.2,41.6c-12.5,2.7-25.2,2.9-37.9,1.6
	c-20.9-2.2-39.7-9.8-56.5-22.3c-24.2-18-39.3-41.8-45.5-71.5c-2.3-10.9-2.7-22.1-1.8-33c2.3-25.6,12.1-48.3,29.5-67.6
	c16.6-18.6,36.9-30.7,61-36.2c11.9-2.7,23.9-3.7,36.2-2.6c17.6,1.6,34,6.7,49.3,15.4c2,1.2,2.7,0.4,3.9-0.8l32.2-32.3
	c0.8-0.8,1.6-1.8,2.5-2.9C423,84.2,436.1,97.3,449.4,110.6 M376.1,210.3c1-37.7-28.7-65.1-62.2-66.1c-37.7-1-65.9,30.3-65.9,64.1
	c0,34.6,29.1,64.5,64.1,63.9C346.6,272.6,375.3,244.3,376.1,210.3 M425.6,471.4c0.2,31.7,0,63.5,0,95.2v4.3h-56.7V567
	c0-33.2,0.2-66.5,0-99.7c0-17.4-6.1-32.6-18.8-44.8c-8.4-8-18.6-12.7-30.3-14.3c-15.2-2.2-29.1,1.6-41.4,10.7
	c-12.3,9.4-19.6,22.1-21.9,37.1c-1.2,7.2-1.4,14.7-1.4,22.1c-0.2,29.5,0,58.8,0,88.4v4.1h-56.3V567c0-35.8-0.4-71.7,0.2-107.5
	c0.4-19,6.4-36.9,16.4-53.4c16.6-27.4,40.3-45,71.3-52.2c9.8-2.2,19.9-3.1,29.9-2.7c31.1,1.4,57.7,13.7,78.8,36.9
	c15.1,16.8,24.6,36.4,27.9,58.8C424.8,455.2,425.6,463.4,425.6,471.4"/>
</svg>
